<svg width="360" height="360" viewBox="0 0 360 360" fill="none" xmlns="http://www.w3.org/2000/svg">
<ellipse cx="188.082" cy="160.852" rx="7.45466" ry="7.63459" transform="rotate(-44.95 188.082 160.852)" fill="#F5BE31" fill-opacity="0.333333"/>
<ellipse cx="166.637" cy="158.245" rx="7.45819" ry="7.63812" transform="rotate(-44.95 166.637 158.245)" fill="#F5BE31" fill-opacity="0.333"/>
<path d="M110.654 112.616C110.654 112.616 143.817 57.3988 210.108 79.0078C276.293 100.62 260.654 182.664 260.611 182.879C260.901 181.376 272.367 179.944 273.58 179.768C307.403 174.768 332.561 206.228 335.056 237.232C338.153 275.687 308.409 302.923 274.533 314.65" stroke="#325965" stroke-width="1.98"/>
<path fill-rule="evenodd" clip-rule="evenodd" d="M267.494 255.782C272.377 267.809 275.147 281.656 275.57 295.436C275.665 282.891 273.869 269.029 268.193 255.923C266.385 251.759 264.205 247.767 261.68 243.995C261.67 243.967 261.651 243.942 261.627 243.924C253.837 232.282 242.058 221.945 224.657 214.568L210.126 210.334C210.126 210.334 212.426 215.492 209.219 222.167C206.012 228.842 198.113 237.101 189.72 235.154C181.327 233.206 172.101 228.736 173.491 219.673C174.881 210.609 175.481 207.388 175.481 207.388L125.845 207.872C131.165 215.03 138.528 231.481 123.654 258.071L132.894 257.719C132.894 257.719 126.727 315.744 140.709 338.245C140.807 338.425 140.917 338.598 141.026 338.753L219.965 338.425H225.451C225.474 338.367 225.491 338.307 225.504 338.245H206.418C204.24 338.244 202.153 337.376 200.618 335.832C199.679 334.894 198.982 333.741 198.589 332.473C198.345 331.683 198.226 330.859 198.236 330.032C198.244 325.497 201.914 321.82 206.449 321.805H253.668C253.901 321.805 254.148 321.805 254.374 321.833C254.415 321.84 254.456 321.84 254.497 321.833H254.568C254.513 321.843 254.457 321.852 254.402 321.86C254.306 321.875 254.209 321.889 254.113 321.914H254.088C254.316 321.919 254.545 321.91 254.772 321.886C255.146 321.862 255.518 321.819 255.887 321.755C256.095 321.724 256.3 321.685 256.505 321.639L256.72 321.6C256.903 321.561 257.085 321.509 257.268 321.457L257.268 321.457C257.346 321.435 257.425 321.413 257.503 321.392C257.761 321.311 258.008 321.216 258.255 321.12C258.501 321.025 258.748 320.926 258.995 320.803C259.021 320.802 259.045 320.793 259.066 320.778C259.285 320.669 259.503 320.556 259.708 320.446C260.148 320.202 260.57 319.928 260.971 319.624L261.324 319.339C261.637 319.092 261.934 318.826 262.213 318.541C262.475 318.281 262.722 318.007 262.954 317.719L262.991 317.673L262.991 317.673C263.212 317.399 263.431 317.127 263.628 316.827C263.804 316.566 263.98 316.294 264.122 316.019C264.217 315.853 264.312 315.666 264.393 315.497C264.398 315.49 264.403 315.484 264.408 315.478C264.43 315.448 264.45 315.422 264.45 315.387C264.521 315.25 264.585 315.108 264.64 314.964C264.81 314.589 264.958 314.203 265.081 313.81C265.191 313.458 265.286 313.084 265.367 312.713C265.409 312.523 265.448 312.329 265.476 312.138C265.533 311.785 265.572 311.432 265.6 311.055C265.6 310.946 265.607 310.833 265.614 310.72L265.614 310.719C265.621 310.606 265.628 310.494 265.628 310.385C265.63 309.208 265.454 308.037 265.106 306.913C265.06 306.732 265.001 306.553 264.93 306.38C264.872 306.197 264.803 306.018 264.721 305.844C264.135 304.476 263.297 303.231 262.252 302.171C262.126 302.036 261.993 301.908 261.853 301.787C261.45 301.406 261.014 301.062 260.551 300.757C260.532 300.744 260.512 300.732 260.492 300.719C260.453 300.694 260.414 300.667 260.375 300.641C260.282 300.579 260.187 300.515 260.086 300.457C258.811 299.661 257.389 299.129 255.905 298.894C255.329 298.796 254.746 298.745 254.162 298.742L246.813 298.7L236.063 298.647H235.742C235.425 298.619 235.111 298.605 234.779 298.605H233.163C233.273 288.197 231.399 280.326 228.856 274.473L228.856 274.473C228.898 274.39 241.109 250.377 267.494 255.782ZM268.437 338.231C268.437 338.231 269.163 336.217 270.165 332.692C269.49 334.588 268.74 336.434 267.914 338.231H268.437ZM253.668 338.231C253.986 338.231 254.3 338.221 254.614 338.192C254.571 338.196 254.528 338.2 254.489 338.203C254.242 338.223 254.146 338.231 255.164 338.231H253.668Z" fill="#F5BE31"/>
<path d="M177.883 193.587C177.883 193.587 176.691 200.826 175.456 207.381C171.928 207.42 168.4 207.448 164.911 207.476C163.147 197.549 165.062 189.773 167.338 184.59C170.206 191.131 174.539 193.121 177.883 193.587Z" fill="#6F5151"/>
<path d="M235.87 219.708C228.696 215.845 221.05 212.934 213.125 211.046L210.528 210.598C210.528 210.598 208.595 206.203 208.584 206.188C207.677 203.885 206.174 200.826 205.709 198.399C205.141 195.531 205.003 192.596 205.299 189.688C205.807 185.37 207.818 176.236 211.452 173.357C214.483 170.972 215.732 171.473 217.45 167.744C218.685 165.084 219.186 160.614 216.787 158.652C214.127 156.5 212.991 157.594 209.808 157.925C197.714 159.125 190.803 150.421 186.358 140.363C185.652 138.73 184.918 137.004 183.765 135.614C182.442 134.013 180.611 133.653 179.111 132.358C178.473 131.801 178.035 130.89 178.342 130.1C178.523 129.722 178.786 129.39 179.111 129.126C181.945 126.516 185.347 124.601 189.049 123.534C194.905 121.841 201.093 121.648 207.042 122.973C213.252 125.03 218.833 128.925 222.59 134.877C227.773 143.101 229.022 151.631 226.118 160.134C223.144 168.841 219.824 179.069 225.413 187.448C232.853 198.579 237.337 206.407 235.87 219.708Z" fill="#6F5151"/>
<path d="M175.47 207.381C171.942 207.42 168.414 207.448 164.925 207.476C138.338 207.614 112.89 207.243 86.2188 212.027" stroke="#010D0D" stroke-width="1.98"/>
<path d="M210.108 210.341C211.121 210.564 212.123 210.796 213.124 211.047C217.03 211.991 220.876 213.169 224.64 214.575C228.502 216.012 232.255 217.726 235.869 219.705C235.878 219.697 235.89 219.697 235.898 219.705C241.585 222.786 246.841 226.603 251.53 231.058C255.451 234.878 258.841 239.208 261.61 243.931C261.634 243.949 261.652 243.974 261.663 244.002C263.908 247.772 265.858 251.71 267.494 255.782C272.377 267.809 275.147 281.656 275.57 295.437C275.955 308.451 274.24 321.41 270.183 332.692C269.508 334.588 268.757 336.434 267.932 338.231C267.879 338.369 267.808 338.492 267.756 338.63" stroke="#010D0D" stroke-width="1.98"/>
<path d="M225.437 338.454C225.437 338.454 225.437 338.425 225.437 338.411C225.46 338.353 225.477 338.293 225.49 338.231" stroke="#010D0D" stroke-width="1.98"/>
<path d="M216.127 259.116C216.127 259.116 223.804 262.845 228.849 274.487C231.385 280.34 233.266 288.211 233.156 298.619V298.647C233.1 305.283 232.225 312.946 230.193 321.777V321.826" stroke="#010D0D" stroke-width="1.98"/>
<path d="M70.8403 111.314C72.1951 106.187 74.3683 100.903 76.0018 98.6799C78.5702 95.2225 81.9218 91.9273 86.233 92.2237C89.0025 92.4036 91.7226 93.9347 91.846 96.9688C91.9625 100.26 88.4909 103.915 87.3761 107.01C86.3177 109.994 85.8343 113.469 86.3918 116.609C86.9492 119.749 89.7681 122.201 92.8092 122.875C93.9627 123.179 95.1896 123.012 96.2208 122.413C99.1984 120.529 98.5739 115.512 98.454 112.552C98.3129 109.232 98.3164 105.478 101.149 103.206C103.231 101.538 106.388 102.645 107.923 104.48C110.59 107.655 110.721 112.436 110.855 116.345C111.254 128.121 109.161 139.411 102.303 149.324C98.775 154.443 95.1412 159.037 93.7124 165.317C89.2671 184.834 88.7732 198.364 86.2189 218.184" stroke="#010D0D" stroke-width="1.98"/>
<path d="M140.07 338.76C126.438 300.016 132.894 257.687 132.894 257.687L59.6671 260.008C53.3591 260.208 47.2735 257.667 42.9797 253.042C38.6859 248.417 36.6041 242.16 37.2714 235.884L55.2077 170.475L59.0885 156.521C60.326 152.131 60.0425 147.451 58.2841 143.242L56.4566 138.881C56.4566 138.881 53.1438 132.125 60.5703 132.76C64.564 133.113 68.5259 134.81 71.8775 136.941C74.5094 138.617 78.5243 141.859 77.2824 145.454C75.8148 149.688 70.0606 150.746 66.6808 148.365" stroke="#010D0D" stroke-width="1.98"/>
<path d="M58.1007 132.725C58.1007 132.725 51.8279 118.613 69.0375 122.265C86.2471 125.916 90.3678 144.72 77.233 142.604" stroke="#010D0D" stroke-width="1.98"/>
<path d="M63.7736 121.457C63.7736 121.457 58.2699 114.771 66.4972 111.578C74.7245 108.385 104.6 123.464 85.4355 138.317" stroke="#010D0D" stroke-width="1.98"/>
<path d="M182.822 193.269C181.225 193.707 179.555 193.815 177.915 193.587C174.556 193.121 170.224 191.117 167.37 184.59C166.777 183.256 166.295 181.876 165.93 180.462C164.477 175.061 163.842 167.546 164.692 157.068C164.858 155.054 165.105 153.008 165.447 150.965C166.013 147.411 166.927 143.922 168.174 140.547C168.174 140.547 168.174 140.518 168.202 140.504C171.314 132.277 176.786 125.334 185.987 122.663C192.887 120.673 200.223 120.778 207.063 122.967C213.273 125.023 218.854 128.918 222.611 134.87C227.794 143.094 229.043 151.625 226.139 160.127C223.165 168.834 219.845 179.062 225.434 187.441C232.864 198.589 237.348 206.418 235.908 219.718" stroke="#010D0D" stroke-width="1.98"/>
<path d="M162.103 207.889C159.4 194.931 163.048 185.483 165.913 180.462" stroke="#010D0D" stroke-width="1.98"/>
<path d="M165.447 150.951C165.447 150.951 171.363 144.766 178.218 154.535" stroke="#010D0D" stroke-width="1.98"/>
<path fill-rule="evenodd" clip-rule="evenodd" d="M180.512 182.092C183.013 183.712 186.4 182.706 188.241 180.212C190.242 177.506 191.043 173.893 191.477 170.616C191.505 170.379 191.537 170.147 191.558 169.91C188.506 174.705 182.583 175.855 177.368 176.356C177.566 177.924 178.149 179.418 179.065 180.706C179.457 181.254 179.948 181.724 180.512 182.092V182.092Z" stroke="#010D0D" stroke-width="1.98" stroke-linecap="round" stroke-linejoin="round"/>
<path d="M207.681 203.677L207.667 203.663" stroke="#010D0D" stroke-width="1.98"/>
<path d="M184.407 149.049C184.407 149.049 186.418 145.793 193.29 148.192C200.163 150.591 200.244 154.511 200.244 154.511" stroke="#010D0D" stroke-width="1.98"/>
<path d="M168.785 157.146C168.785 157.146 171.96 155.541 174.447 157.146" stroke="#010D0D" stroke-width="1.98"/>
<path d="M185.896 158.624C185.896 158.624 189.071 157.019 191.54 158.624" stroke="#010D0D" stroke-width="1.98"/>
<path d="M177.883 193.587C177.883 193.587 176.691 200.826 175.456 207.381C175.276 208.313 175.103 209.23 174.948 210.136C174.14 214.55 173.495 218.473 173.466 219.662C173.262 229.54 182.6 235.238 191.621 235.143C204.28 235.005 211.682 223.229 210.489 211.435C209.709 209.283 208.912 207.131 208.132 204.979C207.13 202.22 205.829 199.535 205.264 196.628C204.766 193.764 204.711 190.84 205.102 187.959C205.61 183.655 206.446 177.238 210.08 174.359C213.11 171.974 216.275 170.408 218.004 166.679C219.239 164.018 219.182 160.593 216.783 158.631C214.123 156.479 209.914 156.74 206.732 157.054C186.206 159.153 182.791 138.377 177.238 135.459C172.687 133.057 169.272 138.448 168.203 140.448L168.16 140.533C168.158 140.553 168.15 140.571 168.135 140.585C167.941 140.938 167.846 141.175 167.846 141.175" stroke="#010D0D" stroke-width="1.98"/>
<path d="M177.358 159.538C177.358 159.538 175.213 166.559 175.379 167.61C175.544 168.661 178.046 167.928 178.046 167.928" stroke="#010D0D" stroke-width="1.98"/>
<ellipse cx="188.082" cy="160.852" rx="8.40722" ry="8.61185" transform="rotate(-44.95 188.082 160.852)" stroke="#010D0D" stroke-width="1.98"/>
<ellipse cx="166.637" cy="158.246" rx="8.40722" ry="8.61185" transform="rotate(-44.95 166.637 158.246)" stroke="#010D0D" stroke-width="1.98"/>
<path fill-rule="evenodd" clip-rule="evenodd" d="M159.185 157.329C159.539 153.584 162.688 150.726 166.449 150.735H166.46C166.766 150.737 167.072 150.756 167.377 150.792C171.509 151.302 174.49 155 174.112 159.146C173.758 162.895 170.603 165.755 166.837 165.74C166.531 165.739 166.224 165.72 165.92 165.684C161.788 165.173 158.807 161.475 159.185 157.329ZM171.43 153.892C170.153 152.494 168.343 151.7 166.449 151.709C163.185 151.696 160.449 154.175 160.141 157.424C159.961 159.31 160.586 161.184 161.863 162.583C163.141 163.982 164.95 164.775 166.844 164.766C170.108 164.779 172.844 162.301 173.152 159.051C173.333 157.165 172.707 155.291 171.43 153.892Z" fill="white"/>
<path d="M179.608 159.816L175.107 159.27" stroke="#010D0D" stroke-width="1.98"/>
<path fill-rule="evenodd" clip-rule="evenodd" d="M78.3337 59.9775C79.1487 49.7745 87.6159 41.5754 97.8471 41.0533H97.8506C106.164 40.6223 113.924 45.2191 117.541 52.7166C121.158 60.214 119.926 69.1494 114.415 75.3878C114.37 75.4355 114.329 75.4862 114.291 75.5395C112.805 77.1767 111.07 78.5697 109.151 79.6672C108.67 79.9311 108.223 80.2534 107.821 80.6268C102.213 83.4358 95.6067 83.4254 90.0079 80.5986C89.5854 80.2379 89.1307 79.9167 88.6496 79.639C86.8057 78.5855 85.1389 77.2485 83.7104 75.6771C79.7933 71.4309 77.8421 65.7335 78.3337 59.9775ZM110.559 73.4827C110.582 73.44 110.615 73.4028 110.654 73.3733L110.65 73.3804C115.109 68.3317 115.911 61.0239 112.652 55.1289C109.393 49.2338 102.778 46.0259 96.1312 47.117C89.4842 48.2082 84.2421 53.3624 83.0388 59.9899C81.8354 66.6175 84.931 73.2856 90.7701 76.6438C91.144 76.8644 91.4981 77.1171 91.8285 77.3988C96.1522 79.5629 101.243 79.5629 105.567 77.3988C105.872 77.1092 106.214 76.8602 106.583 76.6579C108.065 75.8133 109.407 74.742 110.559 73.4827Z" fill="#F5BE31"/>
<path d="M107.814 80.6307C106.172 82.1211 105.238 84.2377 105.245 86.4554V87.4009C105.245 90.7031 102.853 93.6631 99.6005 93.9947C97.8229 94.177 96.0511 93.5994 94.7225 92.4045C93.3939 91.2096 92.6323 89.5088 92.6256 87.7219V86.4554C92.6218 84.2256 91.6762 82.1011 90.022 80.606C95.6206 83.4242 102.221 83.4333 107.828 80.6307H107.814Z" fill="#353642"/>
<path fill-rule="evenodd" clip-rule="evenodd" d="M107.813 80.6307C106.171 82.1211 105.238 84.2377 105.245 86.4554V87.4009C105.245 90.7031 102.853 93.6631 99.6002 93.9947C97.8227 94.177 96.0509 93.5994 94.7223 92.4045C93.3936 91.2096 92.632 89.5088 92.6254 87.7219V86.4554C92.6216 84.2256 91.676 82.1011 90.0217 80.606C95.6204 83.4242 102.221 83.4333 107.828 80.6307H107.813Z" stroke="#010D0D" stroke-width="1.98"/>
<path fill-rule="evenodd" clip-rule="evenodd" d="M119.593 61.6957C119.604 66.7437 117.758 71.6195 114.407 75.3949C114.365 75.4405 114.326 75.4888 114.291 75.5395C112.802 77.1795 111.064 78.5738 109.14 79.6708C108.662 79.9381 108.217 80.2602 107.813 80.6304C102.207 83.4331 95.6063 83.424 90.0076 80.6057C89.5859 80.2393 89.1298 79.9144 88.6458 79.6355C81.6893 75.6366 77.6708 67.9776 78.3334 59.9811C79.2262 48.9183 88.6988 40.5368 99.7879 40.9976C110.877 41.4584 119.622 50.597 119.593 61.6957V61.6957Z" stroke="#010D0D" stroke-width="1.98"/>
<path d="M93.0877 82.7261L88.3531 67.0336L87.1677 62.5883C87.1676 62.3135 87.3521 62.073 87.6175 62.0019C87.8829 61.9308 88.163 62.0469 88.3002 62.2849C89.3586 64.1547 91.0309 66.5008 92.6961 66.4409C95.4585 66.3421 93.19 57.956 90.9321 58.8345C88.6742 59.713 93.003 65.2555 97.4624 65.9469C101.922 66.6384 100.701 59.1414 97.4624 58.8451C94.2237 58.5487 96.4569 64.8639 102.278 65.9469C108.099 67.03 107.013 60.6197 105.436 59.339C103.859 58.0583 104.349 65.453 108.004 66.6384C109.161 67.0159 110.082 66.208 110.534 65.2025C110.795 64.6169 110.661 61.6534 110.124 62.5671C109.031 64.4405 108.816 66.7796 108.279 68.847C107.14 73.2217 105.397 77.4094 104.398 81.8229" stroke="#010D0D" stroke-width="1.98"/>
<path d="M61.9707 338.76C64.4685 337.589 294.819 338.76 294.819 338.76" stroke="#010D0D" stroke-width="1.98"/>
<path d="M98.9125 33.6694L98.7079 21.2402" stroke="#010D0D" stroke-width="2.6424"/>
<path d="M75.2078 45.2305L66.603 36.2588" stroke="#010D0D" stroke-width="2.6424"/>
<path d="M122.705 45.7881L131.501 37.0034" stroke="#010D0D" stroke-width="2.6424"/>
<path d="M254.561 321.804L254.861 321.833C254.699 321.861 254.508 321.889 254.342 321.928H254.088L230.2 321.804H227.501L187.367 321.6C187.215 321.6 187.063 321.6 186.912 321.6C186.875 321.607 186.838 321.607 186.802 321.6C186.802 321.6 186.802 321.6 186.777 321.6C186.525 321.602 186.272 321.584 186.022 321.547C188.169 321.304 190.203 320.459 191.89 319.109C192.154 318.887 192.426 318.675 192.673 318.435L192.701 318.407C192.759 318.36 192.813 318.31 192.863 318.255C194.903 316.238 196.124 313.537 196.292 310.674C196.292 310.536 196.292 310.384 196.292 310.247V310.028C196.267 304.517 192.381 299.779 186.982 298.675C186.974 298.668 186.962 298.668 186.954 298.675C186.693 298.608 186.393 298.565 186.118 298.523L186.707 298.484C186.803 298.477 186.9 298.477 186.996 298.484H187.462L221.369 298.661L227.611 298.689L233.149 298.717H235.728H236.042H236.152C242.075 299.314 246.588 304.293 246.602 310.247C246.601 310.794 246.56 311.34 246.478 311.88C245.653 317.422 240.99 321.586 235.39 321.78C235.266 321.78 235.143 321.78 235.037 321.78H255.182C254.889 321.79 254.699 321.79 254.561 321.804V321.804Z" fill="white"/>
<path d="M200.614 335.825C202.153 337.372 204.246 338.241 206.428 338.238H186.749C182.981 338.238 180.935 337.321 179.443 335.825C177.901 334.282 177.033 332.191 177.03 330.011C177.03 325.502 180.73 321.797 186.749 321.797H206.428C203.102 321.792 200.102 323.793 198.828 326.866C197.554 329.938 198.26 333.476 200.614 335.825Z" fill="#00BD6B"/>
<path d="M265.667 310.413C265.667 310.632 265.667 310.864 265.639 311.083C265.611 311.454 265.572 311.81 265.515 312.166C265.487 312.357 265.448 312.551 265.406 312.741C265.325 313.094 265.229 313.482 265.12 313.839C264.996 314.232 264.849 314.617 264.679 314.992C264.624 315.137 264.56 315.278 264.489 315.416C264.489 315.458 264.46 315.486 264.432 315.525C264.351 315.705 264.256 315.878 264.161 316.047C264.009 316.322 263.843 316.594 263.667 316.855C263.458 317.172 263.226 317.458 262.993 317.748C262.761 318.035 262.513 318.309 262.252 318.57C261.973 318.854 261.676 319.12 261.363 319.367L261.01 319.653C260.609 319.956 260.187 320.231 259.747 320.475C259.542 320.584 259.324 320.697 259.105 320.806C259.084 320.821 259.06 320.83 259.034 320.831C258.787 320.954 258.54 321.053 258.293 321.149C258.046 321.244 257.8 321.339 257.542 321.42C257.281 321.491 257.02 321.572 256.759 321.628C256.118 321.775 255.467 321.87 254.811 321.914C254.674 321.914 254.54 321.914 254.402 321.914H254.18C254.331 321.875 254.483 321.861 254.635 321.833C254.652 321.826 254.671 321.826 254.688 321.833C254.619 321.831 254.55 321.822 254.483 321.805C254.529 321.798 254.575 321.798 254.621 321.805H255.224H235.037H235.39C237.872 321.672 240.246 320.743 242.16 319.155C242.448 318.92 242.724 318.669 242.985 318.404C243.204 318.191 243.41 317.966 243.603 317.73C243.75 317.566 243.887 317.393 244.012 317.211C244.093 317.112 244.164 317.017 244.231 316.922C244.361 316.747 244.479 316.563 244.584 316.372C244.744 316.148 244.887 315.912 245.011 315.666C245.142 315.431 245.26 315.188 245.363 314.939C245.416 314.83 245.459 314.706 245.529 314.586C245.624 314.339 245.706 314.093 245.787 313.846C245.9 313.493 246.009 313.119 246.09 312.752C246.139 312.553 246.176 312.352 246.199 312.149C246.215 312.099 246.225 312.048 246.228 311.997C246.243 311.957 246.253 311.916 246.256 311.873C246.256 311.736 246.295 311.612 246.309 311.475C246.309 311.447 246.309 311.422 246.309 311.394C246.36 311.011 246.384 310.626 246.379 310.24C246.384 310.062 246.375 309.884 246.351 309.707V309.584C246.351 309.409 246.337 309.234 246.309 309.062C246.216 308.11 245.999 307.174 245.663 306.278C245.478 305.741 245.241 305.222 244.958 304.729C244.699 304.233 244.397 303.761 244.054 303.318C243.966 303.189 243.869 303.065 243.765 302.948C243.723 302.905 243.684 302.849 243.628 302.796C243.445 302.556 243.243 302.33 243.024 302.122C242.862 301.96 242.671 301.794 242.506 301.618C242.34 301.441 242.065 301.233 241.832 301.067C241.599 300.901 241.447 300.781 241.243 300.644C240.939 300.423 240.618 300.226 240.283 300.055C239.971 299.873 239.646 299.716 239.309 299.585C238.92 299.419 238.522 299.273 238.117 299.148C237.979 299.097 237.836 299.06 237.69 299.039C237.312 298.931 236.928 298.849 236.54 298.792C236.346 298.749 236.155 298.735 235.951 298.71H235.922C235.896 298.717 235.868 298.717 235.841 298.71H236.046L246.796 298.763L254.145 298.806C254.729 298.808 255.312 298.859 255.887 298.957C257.381 299.189 258.813 299.721 260.096 300.52C260.262 300.616 260.41 300.725 260.562 300.82C261.025 301.125 261.461 301.47 261.864 301.85C262.003 301.971 262.137 302.1 262.262 302.235C263.308 303.294 264.145 304.54 264.732 305.908C264.814 306.081 264.883 306.261 264.94 306.444C265.012 306.617 265.071 306.795 265.117 306.977C265.471 308.088 265.657 309.246 265.667 310.413V310.413Z" fill="#2F95DF"/>
<path fill-rule="evenodd" clip-rule="evenodd" d="M265.667 310.413C265.667 310.631 265.667 310.864 265.639 311.083C265.61 311.453 265.572 311.81 265.515 312.166C265.487 312.357 265.448 312.551 265.406 312.741C265.325 313.094 265.229 313.482 265.12 313.838C264.996 314.231 264.849 314.617 264.679 314.992C264.625 315.139 264.556 315.281 264.474 315.415C264.474 315.458 264.446 315.486 264.418 315.525C264.337 315.705 264.242 315.878 264.146 316.047C263.995 316.322 263.829 316.594 263.652 316.855C263.444 317.172 263.211 317.458 262.979 317.747C262.742 318.035 262.49 318.309 262.224 318.569C261.944 318.854 261.647 319.12 261.335 319.367L260.982 319.652C260.58 319.956 260.158 320.23 259.719 320.474C259.514 320.584 259.295 320.697 259.077 320.806C259.056 320.821 259.032 320.83 259.006 320.831C258.759 320.954 258.512 321.053 258.265 321.148C258.018 321.244 257.771 321.339 257.514 321.42C257.253 321.491 256.992 321.572 256.731 321.628L256.515 321.667C256.311 321.713 256.106 321.752 255.898 321.783C255.529 321.847 255.157 321.89 254.783 321.914C254.556 321.938 254.327 321.947 254.099 321.942C254.099 321.942 254.056 321.942 254.042 321.942L230.193 321.826L224.573 321.797L187.112 321.607C186.974 321.605 186.837 321.595 186.7 321.579C186.386 321.579 186.082 321.551 185.768 321.526C191.369 320.858 195.691 316.282 196.038 310.653C196.038 310.515 196.038 310.363 196.038 310.212V310.063C196.045 304.522 192.145 299.743 186.714 298.64C186.439 298.583 186.163 298.544 185.878 298.502C186.151 298.47 186.425 298.453 186.7 298.449C186.796 298.442 186.893 298.442 186.989 298.449H187.222L224.682 298.64L233.149 298.682H235.919H236.152L254.144 298.777C254.735 298.78 255.325 298.826 255.908 298.915C257.399 299.159 258.828 299.69 260.117 300.478C260.283 300.573 260.431 300.682 260.583 300.778C261.04 301.091 261.475 301.435 261.885 301.808C262.023 301.931 262.146 302.055 262.284 302.192C263.329 303.252 264.166 304.497 264.753 305.865L264.961 306.401C265.031 306.575 265.09 306.753 265.138 306.934C265.489 308.06 265.668 309.233 265.667 310.413V310.413Z" stroke="#010D0D" stroke-width="1.98" stroke-linecap="square" stroke-linejoin="round"/>
<path fill-rule="evenodd" clip-rule="evenodd" d="M246.362 310.204C246.364 310.59 246.345 310.975 246.305 311.358V311.439C246.277 311.619 246.252 311.792 246.224 311.961C246.221 312.013 246.212 312.064 246.196 312.113C246.172 312.316 246.136 312.518 246.087 312.716C246.005 313.069 245.896 313.454 245.783 313.81C245.702 314.057 245.621 314.304 245.526 314.551C245.455 314.674 245.413 314.798 245.36 314.904C245.256 315.153 245.139 315.395 245.007 315.63C244.883 315.876 244.741 316.112 244.58 316.336C244.476 316.528 244.358 316.712 244.227 316.886C244.16 316.982 244.09 317.077 244.009 317.176C243.883 317.357 243.747 317.53 243.599 317.694C243.407 317.931 243.2 318.156 242.982 318.368C242.719 318.628 242.444 318.874 242.156 319.106C240.247 320.701 237.874 321.639 235.39 321.78C235.266 321.78 235.143 321.78 235.037 321.78H187.165C186.728 321.78 186.276 321.755 185.821 321.713C186.116 321.677 186.41 321.627 186.7 321.561C186.723 321.569 186.747 321.569 186.77 321.561H186.795C189.019 321.097 191.06 319.994 192.666 318.386L192.694 318.358C194.736 316.294 195.929 313.539 196.038 310.638C196.038 310.501 196.038 310.349 196.038 310.197V310.183C195.993 304.334 191.614 299.426 185.807 298.717C186.111 298.678 186.41 298.664 186.714 298.65C186.791 298.636 186.87 298.636 186.947 298.65C186.955 298.643 186.967 298.643 186.975 298.65C187.033 298.643 187.093 298.643 187.151 298.65H234.772C235.104 298.65 235.418 298.65 235.735 298.693H235.845C235.871 298.7 235.899 298.7 235.926 298.693H235.982L236.543 298.774C236.932 298.831 237.316 298.913 237.693 299.021C237.831 299.049 237.983 299.088 238.12 299.13C238.525 299.255 238.923 299.401 239.313 299.568C239.641 299.705 239.973 299.871 240.287 300.037C240.618 300.213 240.939 300.41 241.246 300.626C241.451 300.764 241.645 300.898 241.835 301.049C242.026 301.201 242.287 301.402 242.509 301.6C242.731 301.797 242.862 301.952 243.028 302.104C243.236 302.326 243.441 302.545 243.631 302.778C243.687 302.831 243.726 302.887 243.769 302.93L244.058 303.3C244.388 303.751 244.69 304.222 244.961 304.711C245.228 305.213 245.463 305.73 245.667 306.26C245.99 307.159 246.207 308.094 246.312 309.044C246.312 309.224 246.341 309.397 246.355 309.566V309.689C246.362 309.848 246.362 310.028 246.362 310.204V310.204Z" stroke="#010D0D" stroke-width="1.98" stroke-linecap="square" stroke-linejoin="round"/>
<path fill-rule="evenodd" clip-rule="evenodd" d="M255.164 338.231H186.742C185.217 338.272 183.696 338.055 182.244 337.589C181.955 337.479 181.683 337.37 181.422 337.236C181.161 337.098 180.928 336.961 180.695 336.823C180.462 336.686 180.258 336.509 180.05 336.343C179.845 336.163 179.654 335.991 179.474 335.807C178.536 334.869 177.839 333.716 177.446 332.448C177.196 331.659 177.071 330.835 177.075 330.007C177.073 329.686 177.092 329.366 177.132 329.047C177.184 328.601 177.28 328.16 177.418 327.732C177.609 327.054 177.905 326.411 178.296 325.826C178.519 325.444 178.786 325.089 179.09 324.768C179.277 324.56 179.475 324.362 179.683 324.175C181.355 322.683 183.782 321.762 186.784 321.762H255.164C254.889 321.762 254.698 321.762 254.561 321.762C254.515 321.755 254.469 321.755 254.423 321.762C254.286 321.762 254.314 321.762 254.381 321.762C254.389 321.769 254.401 321.769 254.409 321.762C254.441 321.769 254.473 321.769 254.504 321.762H254.575C254.423 321.79 254.272 321.804 254.12 321.843H254.088C254.088 321.843 254.046 321.843 254.032 321.843C250.176 322.61 247.395 325.988 247.381 329.919C247.404 334.078 250.508 337.576 254.635 338.093C254.3 338.22 253.986 338.231 255.164 338.231V338.231Z" stroke="#010D0D" stroke-width="1.98" stroke-linecap="square" stroke-linejoin="round"/>
<path fill-rule="evenodd" clip-rule="evenodd" d="M254.614 338.192C254.3 338.22 253.986 338.231 253.668 338.231H206.418C204.24 338.23 202.153 337.361 200.618 335.818C199.679 334.88 198.982 333.727 198.589 332.459C198.345 331.669 198.226 330.845 198.236 330.018C198.244 325.483 201.914 321.806 206.449 321.791H253.668C253.901 321.791 254.148 321.791 254.374 321.819C254.415 321.825 254.456 321.825 254.497 321.819H254.568C254.416 321.847 254.264 321.861 254.113 321.9H254.088C254.088 321.9 254.046 321.9 254.032 321.9C250.176 322.667 247.395 326.044 247.381 329.975C247.404 334.135 250.508 337.633 254.635 338.15L254.614 338.192Z" stroke="#010D0D" stroke-width="1.98" stroke-linecap="square" stroke-linejoin="round"/>
<path fill-rule="evenodd" clip-rule="evenodd" d="M198.204 330.018C198.204 334.554 201.882 338.231 206.418 338.231H186.742C182.985 338.231 180.928 337.314 179.432 335.818C177.892 334.281 177.029 332.193 177.033 330.018C177.033 325.495 180.723 321.791 186.742 321.791H206.418C201.883 321.806 198.212 325.483 198.204 330.018V330.018Z" stroke="#010D0D" stroke-width="1.98" stroke-linecap="square" stroke-linejoin="round"/>
<path fill-rule="evenodd" clip-rule="evenodd" d="M255.164 338.231H253.668C253.986 338.231 254.3 338.231 254.614 338.192C254.3 338.22 253.986 338.231 255.164 338.231V338.231Z" stroke="#010D0D" stroke-width="1.98" stroke-linecap="square" stroke-linejoin="round"/>
<path fill-rule="evenodd" clip-rule="evenodd" d="M254.504 321.826C254.233 321.826 253.943 321.784 253.668 321.784H255.164C254.12 321.791 254.243 321.826 254.504 321.826Z" stroke="#010D0D" stroke-width="1.98" stroke-linecap="square" stroke-linejoin="round"/>
<path opacity="0.54" d="M49.464 307.283L24.9727 244.541C24.3578 242.082 24.9104 239.476 26.4706 237.477C28.0308 235.479 30.4247 234.31 32.9601 234.31H130.255C134.751 234.309 138.662 237.39 139.714 241.761L166.527 304.496C167.116 306.949 166.548 309.536 164.986 311.517C163.424 313.498 161.041 314.654 158.518 314.653H58.8944C54.4318 314.653 50.5428 311.613 49.464 307.283Z" fill="white"/>
<path d="M49.464 307.283L24.9727 244.541C24.3578 242.082 24.9104 239.476 26.4706 237.477C28.0308 235.479 30.4247 234.31 32.9601 234.31H130.255C134.751 234.309 138.662 237.39 139.714 241.761L166.527 304.496C167.116 306.949 166.548 309.536 164.986 311.517C163.424 313.498 161.041 314.654 158.518 314.653H58.8944C54.4318 314.653 50.5428 311.613 49.464 307.283Z" fill="#010D0D"/>
<path fill-rule="evenodd" clip-rule="evenodd" d="M49.464 307.283L24.9727 244.541C24.3578 242.082 24.9104 239.476 26.4706 237.477C28.0308 235.479 30.4247 234.31 32.9601 234.31H130.255C134.751 234.309 138.662 237.39 139.714 241.761L166.527 304.496C167.116 306.949 166.548 309.536 164.986 311.517C163.424 313.498 161.041 314.654 158.518 314.653H58.8944C54.4318 314.653 50.5428 311.613 49.464 307.283Z" stroke="#010D0D" stroke-width="1.98" stroke-linecap="square" stroke-linejoin="round"/>
<path d="M53.0414 304.743L30.4622 246.859C29.8943 244.591 30.4024 242.188 31.8398 240.344C33.2772 238.5 35.4836 237.421 37.8216 237.418H127.567C131.715 237.419 135.322 240.262 136.292 244.295L161.026 302.154C161.57 304.417 161.046 306.804 159.606 308.632C158.165 310.46 155.966 311.527 153.639 311.528H61.7485C57.6342 311.529 54.0457 308.733 53.0414 304.743V304.743Z" fill="#132632"/>
<path d="M121.083 248.062C119.894 246.273 117.95 245.48 116.736 246.298C115.522 247.117 115.505 249.209 116.694 250.997C116.881 251.27 117.091 251.526 117.322 251.763L108.502 270.38C107.09 269.442 105.549 269.209 104.441 269.95C103.717 270.476 103.263 271.297 103.203 272.19L97.1768 270.154L91.9095 268.39L90.1878 267.826C89.972 267.179 89.6719 266.563 89.2952 265.995C87.623 263.483 84.8923 262.368 83.1883 263.501C81.4842 264.633 81.4666 267.53 83.093 270.024L73.07 283.723C70.8826 281.927 68.3036 281.374 66.5185 282.559C64.0912 284.178 64.0489 288.394 66.4373 291.979C66.5326 292.12 66.6419 292.24 66.7407 292.374L60.0481 301.518L59.9881 301.607C59.4744 302.299 59.3847 303.219 59.755 303.997C60.1253 304.776 60.8951 305.287 61.7565 305.326C62.6179 305.364 63.4304 304.924 63.8689 304.182L69.8207 295.224C71.6976 296.315 73.7015 296.523 75.1585 295.549C77.48 294.004 77.5893 290.095 75.5113 286.623L85.1251 272.113C86.5363 273.076 88.1098 273.323 89.2317 272.578C89.8591 272.136 90.2864 271.464 90.4207 270.708L91.1263 270.909L96.4853 272.374L103.344 274.222C103.552 275.044 103.898 275.824 104.367 276.53C106.036 279.038 108.77 280.156 110.474 279.024C112.178 277.891 112.199 274.938 110.53 272.43C110.284 272.066 110.008 271.722 109.705 271.403L118.098 252.426C119.11 253.132 120.215 253.291 121.03 252.758C122.261 251.971 122.279 249.854 121.083 248.062V248.062Z" fill="#92CDF9"/>
<path d="M57.2256 249.089H44.225C43.0028 249.094 41.8942 248.373 41.4026 247.254C41.3284 247.087 41.2888 246.905 41.2861 246.722C41.2939 245.984 41.8928 245.39 42.6303 245.388H56.4565C55.8144 246.485 56.1672 248.009 57.2256 249.089V249.089Z" fill="#92CDF9"/>
<path d="M65.6434 247.756C65.6395 248.492 65.0426 249.087 64.3063 249.089H57.2256C56.146 248.01 55.8144 246.485 56.4671 245.388H62.7116C63.9313 245.381 65.0392 246.097 65.534 247.212C65.607 247.384 65.6442 247.569 65.6434 247.756V247.756Z" fill="#1E76C0"/>
<path d="M62.3906 249.089C62.3526 249.16 62.3102 249.228 62.2636 249.294C61.3322 250.56 59.3212 250.68 57.7583 249.537C57.5712 249.402 57.3954 249.252 57.2327 249.089C56.1531 248.009 55.8215 246.485 56.4741 245.388C56.5095 245.316 56.5521 245.247 56.6011 245.183C57.522 243.91 59.5329 243.8 61.0958 244.933C61.2858 245.07 61.464 245.222 61.6285 245.388C62.7011 246.471 63.0327 247.981 62.3906 249.089V249.089Z" fill="#00D17A"/>
<path d="M68.9139 255.919C68.9081 256.657 68.308 257.253 67.5698 257.253H53.9199C54.5797 256.145 54.2516 254.635 53.1685 253.552H65.9892C67.2113 253.547 68.32 254.267 68.8116 255.386C68.8809 255.555 68.9157 255.736 68.9139 255.919Z" fill="#1E76C0"/>
<path d="M53.9199 257.263H47.4989C46.2793 257.27 45.1714 256.554 44.6765 255.439C44.6025 255.269 44.563 255.085 44.5601 254.9C44.5582 254.545 44.698 254.204 44.9484 253.953C45.1988 253.702 45.5391 253.562 45.8937 253.563H53.1684C54.2515 254.635 54.5796 256.145 53.9199 257.263V257.263Z" fill="#92CDF9"/>
<path d="M53.92 257.263C53.8907 257.336 53.8515 257.405 53.8035 257.468C52.8827 258.745 50.8682 258.854 49.3053 257.722C49.112 257.583 48.9292 257.429 48.7585 257.263C47.7001 256.184 47.3473 254.67 48 253.562C48.0346 253.491 48.0772 253.423 48.127 253.361C49.0548 252.091 51.0658 251.975 52.6322 253.114C52.8174 253.25 52.9919 253.4 53.1544 253.562C54.2516 254.635 54.5797 256.145 53.92 257.263V257.263Z" fill="#00D17A"/>
<path d="M58.4676 265.378H50.2967C49.0771 265.381 47.9703 264.665 47.4743 263.55C47.4002 263.382 47.3606 263.201 47.3579 263.018C47.3598 262.276 47.9605 261.675 48.7021 261.673H57.6914C57.0634 262.763 57.3951 264.277 58.4676 265.378V265.378Z" fill="#1E76C0"/>
<path d="M71.7116 264.034C71.7077 264.769 71.1097 265.362 70.3745 265.36H58.4675C57.4091 264.277 57.0563 262.764 57.7055 261.656H68.7869C70.0035 261.655 71.1048 262.375 71.5917 263.49C71.6682 263.661 71.7091 263.846 71.7116 264.034Z" fill="#92CDF9"/>
<path d="M63.6219 265.378C63.5873 265.45 63.5447 265.517 63.4949 265.579C62.5741 266.856 60.5631 266.966 59.0002 265.833C58.8127 265.694 58.6347 265.541 58.4675 265.378C57.4091 264.295 57.0563 262.781 57.7055 261.674C57.7427 261.603 57.7851 261.536 57.8325 261.473C58.7639 260.206 60.7748 260.093 62.3377 261.226C62.5232 261.362 62.6988 261.512 62.8634 261.674C63.9289 262.739 64.2817 264.26 63.6219 265.378V265.378Z" fill="#00D17A"/>
<path d="M111.299 303.6H103.125C101.905 303.604 100.799 302.887 100.303 301.773C100.226 301.606 100.185 301.424 100.183 301.24C100.185 300.499 100.785 299.898 101.527 299.896H110.52C109.895 301.011 110.227 302.517 111.299 303.6V303.6Z" fill="#1E76C0"/>
<path d="M143.739 302.274C143.738 302.627 143.597 302.965 143.347 303.213C143.097 303.462 142.758 303.601 142.406 303.6H111.299C110.241 302.517 109.888 301.004 110.537 299.896H140.815C142.031 299.895 143.132 300.616 143.619 301.731C143.696 301.902 143.737 302.086 143.739 302.274V302.274Z" fill="#92CDF9"/>
<path d="M116.454 303.6C116.419 303.672 116.376 303.739 116.327 303.801C115.406 305.078 113.395 305.188 111.832 304.055C111.644 303.917 111.466 303.764 111.299 303.6C110.241 302.517 109.888 301.004 110.537 299.896C110.574 299.826 110.617 299.758 110.664 299.695C111.596 298.428 113.607 298.315 115.17 299.448C115.355 299.585 115.531 299.734 115.695 299.896C116.775 300.979 117.106 302.499 116.454 303.6V303.6Z" fill="#00D17A"/>
</svg>
